<!--?xml version="1.0" standalone="no"?-->
              <svg id="sw-js-blob-svg" viewBox="0 0 100 100" xmlns="http://www.w3.org/2000/svg" version="1.1">
                    <defs> 
                        <linearGradient id="sw-gradient" x1="0" x2="1" y1="1" y2="0">
                            <stop id="stop1" stop-color="rgba(0, 10.088, 255, 1)" offset="0%"></stop>
                            <stop id="stop2" stop-color="rgba(252.418, 80.099, 186.358, 1)" offset="100%"></stop>
                        </linearGradient>
                    </defs>
                <path fill="url(#sw-gradient)" d="M25.3,-29.2C30.9,-25.4,32.4,-15.7,32.8,-6.7C33.3,2.2,32.7,10.3,28.3,14.9C23.9,19.4,15.8,20.3,8.4,22.8C1,25.4,-5.7,29.6,-9.6,27.6C-13.6,25.7,-14.8,17.5,-19.5,10.7C-24.1,3.8,-32.1,-1.6,-32.4,-6.7C-32.6,-11.7,-25.1,-16.4,-18.5,-20C-11.8,-23.7,-5.9,-26.3,2,-28.7C9.8,-31,19.6,-33,25.3,-29.2Z" width="100%" height="100%" transform="translate(50 50)" stroke-width="0" style="transition: all 0.3s ease 0s;"></path>
              </svg>